<svg width="0" height="0" xmlns="http://www.w3.org/2000/svg">
  <defs>
    <style>
      .icon-stroke { fill: none; stroke: currentColor; stroke-width: 2; stroke-linecap: round; stroke-linejoin: round; }
      .icon-fill { fill: currentColor; }
    </style>
  </defs>

  <!-- Home Icon -->
  <symbol id="icon-home" viewBox="0 0 24 24">
    <path class="icon-stroke" d="M3 9l9-7 9 7v11a2 2 0 0 1-2 2H5a2 2 0 0 1-2-2z"/>
    <polyline class="icon-stroke" points="9 22 9 12 15 12 15 22"/>
  </symbol>

  <!-- Deposit Icon -->
  <symbol id="icon-deposit" viewBox="0 0 24 24">
    <circle class="icon-stroke" cx="12" cy="12" r="1"/>
    <path class="icon-stroke" d="M12 8v8m-4-4h8"/>
    <path class="icon-stroke" d="M4 12a8 8 0 0 1 16 0 8 8 0 0 1-16 0"/>
  </symbol>

  <!-- Withdraw Icon -->
  <symbol id="icon-withdraw" viewBox="0 0 24 24">
    <path class="icon-stroke" d="M12 5v14M5 12h14"/>
    <polyline class="icon-stroke" points="12 5 9 8 15 8"/>
  </symbol>

  <!-- TRS Icon -->
  <symbol id="icon-trs" viewBox="0 0 24 24">
    <line class="icon-stroke" x1="3" y1="12" x2="21" y2="12"/>
    <line class="icon-stroke" x1="3" y1="6" x2="21" y2="6"/>
    <line class="icon-stroke" x1="3" y1="18" x2="21" y2="18"/>
  </symbol>

  <!-- Transfer Icon -->
  <symbol id="icon-transfer" viewBox="0 0 24 24">
    <path class="icon-stroke" d="M1 4v6h6M23 20v-6h-6"/>
    <path class="icon-stroke" d="M20.49 9A9 9 0 0 0 5.64 5.64L1 10m22 4l-4.64 4.36A9 9 0 0 1 3.51 15"/>
  </symbol>

  <!-- Profile Icon -->
  <symbol id="icon-profile" viewBox="0 0 24 24">
    <path class="icon-stroke" d="M20 21v-2a4 4 0 0 0-4-4H8a4 4 0 0 0-4 4v2"/>
    <circle class="icon-stroke" cx="12" cy="7" r="4"/>
  </symbol>

  <!-- Security Icon -->
  <symbol id="icon-security" viewBox="0 0 24 24">
    <path class="icon-stroke" d="M12 22s8-4 8-10V5l-8-3-8 3v7c0 6 8 10 8 10z"/>
    <path class="icon-stroke" d="M12 13v4m-2-2h4"/>
  </symbol>

  <!-- Check Icon -->
  <symbol id="icon-check" viewBox="0 0 24 24">
    <polyline class="icon-stroke" points="20 6 9 17 4 12"/>
  </symbol>

  <!-- Arrow Right -->
  <symbol id="icon-arrow-right" viewBox="0 0 24 24">
    <line class="icon-stroke" x1="5" y1="12" x2="19" y2="12"/>
    <polyline class="icon-stroke" points="12 5 19 12 12 19"/>
  </symbol>

  <!-- Lock Icon -->
  <symbol id="icon-lock" viewBox="0 0 24 24">
    <rect class="icon-stroke" x="3" y="11" width="18" height="11" rx="2" ry="2"/>
    <path class="icon-stroke" d="M7 11V7a5 5 0 0 1 10 0v4"/>
    <circle class="icon-stroke" cx="12" cy="17" r="1"/>
  </symbol>

  <!-- Settings Icon -->
  <symbol id="icon-settings" viewBox="0 0 24 24">
    <circle class="icon-stroke" cx="12" cy="12" r="3"/>
    <path class="icon-stroke" d="M12 1v6m0 6v6M4.22 4.22l4.24 4.24m2.12 2.12l4.24 4.24M1 12h6m6 0h6m-14.78 7.78l4.24-4.24m2.12-2.12l4.24-4.24"/>
  </symbol>

  <!-- Bell Icon -->
  <symbol id="icon-bell" viewBox="0 0 24 24">
    <path class="icon-stroke" d="M18 8A6 6 0 0 0 6 8c0 7-3 9-3 9h18s-3-2-3-9"/>
    <path class="icon-stroke" d="M13.73 21a2 2 0 0 1-3.46 0"/>
  </symbol>

  <!-- Menu Icon -->
  <symbol id="icon-menu" viewBox="0 0 24 24">
    <line class="icon-stroke" x1="3" y1="6" x2="21" y2="6"/>
    <line class="icon-stroke" x1="3" y1="12" x2="21" y2="12"/>
    <line class="icon-stroke" x1="3" y1="18" x2="21" y2="18"/>
  </symbol>

  <!-- X Icon -->
  <symbol id="icon-x" viewBox="0 0 24 24">
    <line class="icon-stroke" x1="18" y1="6" x2="6" y2="18"/>
    <line class="icon-stroke" x1="6" y1="6" x2="18" y2="18"/>
  </symbol>

  <!-- Eye Icon -->
  <symbol id="icon-eye" viewBox="0 0 24 24">
    <path class="icon-stroke" d="M1 12s4-8 11-8 11 8 11 8-4 8-11 8-11-8-11-8z"/>
    <circle class="icon-stroke" cx="12" cy="12" r="3"/>
  </symbol>

  <!-- Eye Off Icon -->
  <symbol id="icon-eye-off" viewBox="0 0 24 24">
    <path class="icon-stroke" d="M17.94 17.94A10.07 10.07 0 0 1 12 20c-7 0-11-8-11-8a18.45 18.45 0 0 1 5.06-5.94M9.9 4.24A9.12 9.12 0 0 1 12 4c7 0 11 8 11 8a18.5 18.5 0 0 1-2.16 3.19m-6.72-1.07a3 3 0 1 1-4.24-4.24"/>
    <line class="icon-stroke" x1="1" y1="1" x2="23" y2="23"/>
  </symbol>

</svg>
